<svg width="25" height="25" viewBox="0 0 25 24" fill="none" xmlns="http://www.w3.org/2000/svg">
<g clip-path="url(#clip0_281_5100)">
<path d="M15.235 11.6251L10.9253 7.24319V11.3438C10.9253 11.4184 10.9549 11.4899 11.0077 11.5427C11.0604 11.5954 11.132 11.6251 11.2065 11.6251H15.235Z" fill="current"/>
<path d="M9.42529 12.5626V6.75006H3.61279C3.46361 6.75006 3.32053 6.80932 3.21505 6.91481C3.10956 7.0203 3.05029 7.16338 3.05029 7.31256V22.6876C3.05029 22.8367 3.10956 22.9798 3.21505 23.0853C3.32053 23.1908 3.46361 23.2501 3.61279 23.2501H15.2378C15.387 23.2501 15.5301 23.1908 15.6355 23.0853C15.741 22.9798 15.8003 22.8367 15.8003 22.6876V13.1251H9.98779C9.83861 13.1251 9.69553 13.0658 9.59005 12.9603C9.48456 12.8548 9.42529 12.7117 9.42529 12.5626Z" fill="current"/>
<path d="M17.9565 5.62506H21.985L17.6753 1.24319V5.34381C17.6753 5.4184 17.7049 5.48994 17.7577 5.54269C17.8104 5.59543 17.882 5.62506 17.9565 5.62506Z" fill="current"/>
<path d="M16.7378 7.12506C16.5886 7.12506 16.4455 7.0658 16.34 6.96031C16.2346 6.85482 16.1753 6.71175 16.1753 6.56256V0.750061H8.86279C8.71361 0.750061 8.57053 0.809324 8.46505 0.914813C8.35956 1.0203 8.30029 1.16338 8.30029 1.31256V5.25006H10.2747C10.5267 5.25107 10.776 5.30186 11.0083 5.39952C11.2406 5.49718 11.4514 5.63978 11.6284 5.81912L16.7453 11.0222C17.1023 11.3845 17.3016 11.8731 17.2998 12.3816V18.7501H21.9878C22.137 18.7501 22.2801 18.6908 22.3855 18.5853C22.491 18.4798 22.5503 18.3367 22.5503 18.1876V7.12506H16.7378Z" fill="current"/>
</g>
<defs>
<clipPath id="clip0_281_5100">
<rect width="24" height="24" fill="white" transform="translate(0.800293 6.10352e-05)"/>
</clipPath>
</defs>
</svg>
