<svg width="25" height="25" viewBox="0 0 18 19" fill="none" xmlns="http://www.w3.org/2000/svg">
<path fill-rule="evenodd" clip-rule="evenodd" d="M17.5153 7.7285L10.0153 0.652249C10.0116 0.64905 10.0082 0.645604 10.005 0.641936C9.43281 0.121562 8.55876 0.121562 7.98656 0.641936L7.97625 0.652249L0.484688 7.7285C0.17573 8.0126 -6.38024e-05 8.41315 0 8.83287V17.5001C0 18.3285 0.671573 19.0001 1.5 19.0001H6C6.82843 19.0001 7.5 18.3285 7.5 17.5001V13.0001H10.5V17.5001C10.5 18.3285 11.1716 19.0001 12 19.0001H16.5C17.3284 19.0001 18 18.3285 18 17.5001V8.83287C18.0001 8.41315 17.8243 8.0126 17.5153 7.7285V7.7285ZM16.5 17.5001H12V13.0001C12 12.1716 11.3284 11.5001 10.5 11.5001H7.5C6.67157 11.5001 6 12.1716 6 13.0001V17.5001H1.5V8.83287L1.51031 8.8235L9 1.75006L16.4906 8.82162L16.5009 8.831L16.5 17.5001Z" fill="current"/>
</svg>
