<svg width="25" height="25" viewBox="0 0 21 20" fill="none" xmlns="http://www.w3.org/2000/svg">
<path fill-rule="evenodd" clip-rule="evenodd" d="M20.0487 17.8751C18.6208 15.4066 16.4205 13.6366 13.8527 12.7976C16.4635 11.2434 17.7141 8.13644 16.9081 5.20696C16.1021 2.27747 13.4382 0.24751 10.3999 0.24751C7.36157 0.24751 4.69769 2.27747 3.89172 5.20696C3.08575 8.13644 4.33635 11.2434 6.94709 12.7976C4.37928 13.6357 2.17896 15.4057 0.751152 17.8751C0.608606 18.1075 0.60343 18.399 0.737633 18.6363C0.871837 18.8737 1.12428 19.0195 1.39693 19.0171C1.66958 19.0148 1.91948 18.8647 2.04959 18.6251C3.81584 15.5726 6.93771 13.7501 10.3999 13.7501C13.8621 13.7501 16.984 15.5726 18.7502 18.6251C18.8803 18.8647 19.1302 19.0148 19.4029 19.0171C19.6755 19.0195 19.928 18.8737 20.0622 18.6363C20.1964 18.399 20.1912 18.1075 20.0487 17.8751V17.8751ZM5.1499 7.00006C5.1499 4.10057 7.50041 1.75006 10.3999 1.75006C13.2994 1.75006 15.6499 4.10057 15.6499 7.00006C15.6499 9.89956 13.2994 12.2501 10.3999 12.2501C7.50169 12.247 5.153 9.89827 5.1499 7.00006V7.00006Z" fill="black"/>
</svg>
