<svg width="25" height="25" viewBox="0 0 22 18" fill="none" xmlns="http://www.w3.org/2000/svg">
<path d="M1.33136 5.39218L9.99036 1.06318C10.0736 1.02163 10.1653 1 10.2584 1C10.3514 1 10.4431 1.02163 10.5264 1.06318L19.1854 5.39318C19.2849 5.44304 19.3687 5.51964 19.4272 5.61439C19.4857 5.70914 19.5167 5.81831 19.5167 5.92968C19.5167 6.04105 19.4857 6.15022 19.4272 6.24497C19.3687 6.33972 19.2849 6.41632 19.1854 6.46618L10.5264 10.7952C10.4431 10.8367 10.3514 10.8584 10.2584 10.8584C10.1653 10.8584 10.0736 10.8367 9.99036 10.7952L1.33136 6.46518C1.23178 6.41532 1.14804 6.33872 1.08952 6.24397C1.031 6.14922 1 6.04005 1 5.92868C1 5.81731 1.031 5.70814 1.08952 5.61339C1.14804 5.51864 1.23178 5.44204 1.33136 5.39218Z" stroke="current" stroke-width="1.5" stroke-linecap="round" stroke-linejoin="round"/>
<path d="M21.2583 9.9292V6.4292L19.2583 5.4292M3.2583 7.4292V12.8412C3.25823 13.2196 3.36549 13.5902 3.56763 13.9101C3.76978 14.2299 4.05851 14.4859 4.4003 14.6482L9.4003 17.0222C9.66841 17.1495 9.96149 17.2156 10.2583 17.2156C10.5551 17.2156 10.8482 17.1495 11.1163 17.0222L16.1163 14.6482C16.4581 14.4859 16.7468 14.2299 16.949 13.9101C17.1511 13.5902 17.2584 13.2196 17.2583 12.8412V7.4292" stroke="current" stroke-width="1.5" stroke-linecap="round" stroke-linejoin="round"/>
</svg>
