<svg width="32" height="32" viewBox="0 0 32 32" fill="none" xmlns="http://www.w3.org/2000/svg">
  <!-- 토마토 몸체 -->
  <ellipse cx="16" cy="18" rx="11" ry="10" fill="#E74C3C"/>
  <ellipse cx="16" cy="18" rx="9" ry="8" fill="#FF6B6B"/>
  
  <!-- 토마토 상단 움푹한 부분 -->
  <path d="M12 8 C12 8 14 10 16 10 C18 10 20 8 20 8 C20 8 18 12 16 12 C14 12 12 8 12 8 Z" fill="#27AE60"/>
  
  <!-- 토마토 잎사귀 -->
  <path d="M14 8 C14 6 12 5 10 6 C11 7 13 7 14 8 Z" fill="#4CAF50"/>
  <path d="M16 8 C16 5 14 4 12 5 C13 6 15 6 16 8 Z" fill="#66BB6A"/>
  <path d="M18 8 C18 6 20 5 22 6 C21 7 19 7 18 8 Z" fill="#4CAF50"/>
  <path d="M16 8 C16 5 18 4 20 5 C19 6 17 6 16 8 Z" fill="#66BB6A"/>
  
  <!-- 토마토 하이라이트 -->
  <ellipse cx="13" cy="15" rx="2" ry="1.5" fill="#FF8A80" opacity="0.7"/>
  
  <!-- 토마토 외곽선 -->
  <ellipse cx="16" cy="18" rx="11" ry="10" fill="none" stroke="#C62828" stroke-width="0.5"/>
</svg> 