<svg width="512" height="512" viewBox="0 0 512 512" fill="none" xmlns="http://www.w3.org/2000/svg">
  <!-- 토마토 몸체 -->
  <ellipse cx="256" cy="288" rx="176" ry="160" fill="#E74C3C"/>
  <ellipse cx="256" cy="288" rx="144" ry="128" fill="#FF6B6B"/>
  
  <!-- 토마토 상단 움푹한 부분 -->
  <path d="M192 128 C192 128 224 160 256 160 C288 160 320 128 320 128 C320 128 288 192 256 192 C224 192 192 128 192 128 Z" fill="#27AE60"/>
  
  <!-- 토마토 잎사귀 -->
  <path d="M224 128 C224 96 192 80 160 96 C176 112 208 112 224 128 Z" fill="#4CAF50"/>
  <path d="M256 128 C256 80 224 64 192 80 C208 96 240 96 256 128 Z" fill="#66BB6A"/>
  <path d="M288 128 C288 96 320 80 352 96 C336 112 304 112 288 128 Z" fill="#4CAF50"/>
  <path d="M256 128 C256 80 288 64 320 80 C304 96 272 96 256 128 Z" fill="#66BB6A"/>
  
  <!-- 토마토 하이라이트 -->
  <ellipse cx="208" cy="240" rx="32" ry="24" fill="#FF8A80" opacity="0.7"/>
  
  <!-- 토마토 외곽선 -->
  <ellipse cx="256" cy="288" rx="176" ry="160" fill="none" stroke="#C62828" stroke-width="8"/>
</svg> 