<svg width="196" height="196" viewBox="0 0 196 196" fill="none" xmlns="http://www.w3.org/2000/svg">
  <!-- 토마토 몸체 -->
  <ellipse cx="98" cy="110.25" rx="67.375" ry="61.25" fill="#E74C3C"/>
  <ellipse cx="98" cy="110.25" rx="55.125" ry="49" fill="#FF6B6B"/>
  
  <!-- 토마토 상단 움푹한 부분 -->
  <path d="M73.5 49 C73.5 49 85.75 61.25 98 61.25 C110.25 61.25 122.5 49 122.5 49 C122.5 49 110.25 73.5 98 73.5 C85.75 73.5 73.5 49 73.5 49 Z" fill="#27AE60"/>
  
  <!-- 토마토 잎사귀 -->
  <path d="M85.75 49 C85.75 36.75 73.5 30.625 61.25 36.75 C67.375 42.875 79.625 42.875 85.75 49 Z" fill="#4CAF50"/>
  <path d="M98 49 C98 30.625 85.75 24.5 73.5 30.625 C79.625 36.75 91.875 36.75 98 49 Z" fill="#66BB6A"/>
  <path d="M110.25 49 C110.25 36.75 122.5 30.625 134.75 36.75 C128.625 42.875 116.375 42.875 110.25 49 Z" fill="#4CAF50"/>
  <path d="M98 49 C98 30.625 110.25 24.5 122.5 30.625 C116.375 36.75 104.125 36.75 98 49 Z" fill="#66BB6A"/>
  
  <!-- 토마토 하이라이트 -->
  <ellipse cx="79.625" cy="91.875" rx="12.25" ry="9.1875" fill="#FF8A80" opacity="0.7"/>
  
  <!-- 토마토 외곽선 -->
  <ellipse cx="98" cy="110.25" rx="67.375" ry="61.25" fill="none" stroke="#C62828" stroke-width="3.0625"/>
</svg> 