<svg width="256" height="256" viewBox="0 0 256 256" fill="none" xmlns="http://www.w3.org/2000/svg">
  <!-- 토마토 몸체 -->
  <ellipse cx="128" cy="144" rx="88" ry="80" fill="#E74C3C"/>
  <ellipse cx="128" cy="144" rx="72" ry="64" fill="#FF6B6B"/>
  
  <!-- 토마토 상단 움푹한 부분 -->
  <path d="M96 64 C96 64 112 80 128 80 C144 80 160 64 160 64 C160 64 144 96 128 96 C112 96 96 64 96 64 Z" fill="#27AE60"/>
  
  <!-- 토마토 잎사귀 -->
  <path d="M112 64 C112 48 96 40 80 48 C88 56 104 56 112 64 Z" fill="#4CAF50"/>
  <path d="M128 64 C128 40 112 32 96 40 C104 48 120 48 128 64 Z" fill="#66BB6A"/>
  <path d="M144 64 C144 48 160 40 176 48 C168 56 152 56 144 64 Z" fill="#4CAF50"/>
  <path d="M128 64 C128 40 144 32 160 40 C152 48 136 48 128 64 Z" fill="#66BB6A"/>
  
  <!-- 토마토 하이라이트 -->
  <ellipse cx="104" cy="120" rx="16" ry="12" fill="#FF8A80" opacity="0.7"/>
  
  <!-- 토마토 외곽선 -->
  <ellipse cx="128" cy="144" rx="88" ry="80" fill="none" stroke="#C62828" stroke-width="4"/>
</svg> 