<svg width="144" height="144" viewBox="0 0 144 144" fill="none" xmlns="http://www.w3.org/2000/svg">
  <!-- 토마토 몸체 -->
  <ellipse cx="72" cy="81" rx="49.5" ry="45" fill="#E74C3C"/>
  <ellipse cx="72" cy="81" rx="40.5" ry="36" fill="#FF6B6B"/>
  
  <!-- 토마토 상단 움푹한 부분 -->
  <path d="M54 36 C54 36 63 45 72 45 C81 45 90 36 90 36 C90 36 81 54 72 54 C63 54 54 36 54 36 Z" fill="#27AE60"/>
  
  <!-- 토마토 잎사귀 -->
  <path d="M63 36 C63 27 54 22.5 45 27 C49.5 31.5 58.5 31.5 63 36 Z" fill="#4CAF50"/>
  <path d="M72 36 C72 22.5 63 18 54 22.5 C58.5 27 67.5 27 72 36 Z" fill="#66BB6A"/>
  <path d="M81 36 C81 27 90 22.5 99 27 C94.5 31.5 85.5 31.5 81 36 Z" fill="#4CAF50"/>
  <path d="M72 36 C72 22.5 81 18 90 22.5 C85.5 27 76.5 27 72 36 Z" fill="#66BB6A"/>
  
  <!-- 토마토 하이라이트 -->
  <ellipse cx="58.5" cy="67.5" rx="9" ry="6.75" fill="#FF8A80" opacity="0.7"/>
  
  <!-- 토마토 외곽선 -->
  <ellipse cx="72" cy="81" rx="49.5" ry="45" fill="none" stroke="#C62828" stroke-width="2.25"/>
</svg> 